<svg xmlns="http://www.w3.org/2000/svg" width="26.502" height="20.613" viewBox="0 0 26.502 20.613">
  <path id="book-open-solid" d="M24.948,32c-2.521.143-7.533.664-10.627,2.558a.707.707,0,0,0-.335.606V51.9a.728.728,0,0,0,1.071.621c3.183-1.6,7.786-2.039,10.063-2.159A1.435,1.435,0,0,0,26.5,48.955V33.411A1.442,1.442,0,0,0,24.948,32ZM12.181,34.556C9.087,32.662,4.076,32.142,1.554,32A1.443,1.443,0,0,0,0,33.411V48.956a1.434,1.434,0,0,0,1.381,1.411c2.277.12,6.883.557,10.066,2.16a.726.726,0,0,0,1.068-.619V35.154A.693.693,0,0,0,12.181,34.556Z" transform="translate(0 -31.996)" fill="#707070"/>
</svg>
