<svg id="Raggruppa_7" data-name="Raggruppa 7" xmlns="http://www.w3.org/2000/svg" width="24.682" height="24.682" viewBox="0 0 24.682 24.682">
  <g id="Ellisse_1336" data-name="Ellisse 1336" transform="translate(0)">
    <g id="Raggruppa_2" data-name="Raggruppa 2">
      <ellipse id="Ellisse_16" data-name="Ellisse 16" cx="11.674" cy="11.674" rx="11.674" ry="11.674" transform="translate(0.667 0.667)" fill="#fff"/>
      <path id="Tracciato_12" data-name="Tracciato 12" d="M962.5,1551.916a12.341,12.341,0,1,1,12.341-12.341A12.355,12.355,0,0,1,962.5,1551.916Zm0-23.348a11.007,11.007,0,1,0,11.007,11.007A11.019,11.019,0,0,0,962.5,1528.569Z" transform="translate(-950.156 -1527.234)" fill="#009cde"/>
    </g>
  </g>
  <g id="Raggruppa_3199" data-name="Raggruppa 3199" transform="translate(4.947 4.883)">
    <g id="Ellisse_1332-5" data-name="Ellisse 1332-5" transform="translate(0 0)">
      <path id="Tracciato_13" data-name="Tracciato 13" d="M970.545,1554.91a7.456,7.456,0,1,1,7.459-7.456A7.466,7.466,0,0,1,970.545,1554.91Zm0-14.015a6.558,6.558,0,1,0,6.561,6.558A6.567,6.567,0,0,0,970.545,1540.895Z" transform="translate(-963.086 -1539.997)" fill="#0a74b9"/>
    </g>
    <g id="Tracciato_2268-5" data-name="Tracciato 2268-5" transform="translate(2.46 10.691)">
      <path id="Tracciato_14" data-name="Tracciato 14" d="M979.3,1570.118a9.2,9.2,0,0,0-9.358,0l-.423-.792a10.094,10.094,0,0,1,10.2,0Z" transform="translate(-969.517 -1567.941)" fill="#0a74b9"/>
    </g>
    <g id="Tracciato_2269-5" data-name="Tracciato 2269-5" transform="translate(2.46 2.045)">
      <path id="Tracciato_15" data-name="Tracciato 15" d="M974.618,1547.519a11.1,11.1,0,0,1-5.1-1.385l.423-.792a9.2,9.2,0,0,0,9.358,0l.423.792A11.108,11.108,0,0,1,974.618,1547.519Z" transform="translate(-969.516 -1545.342)" fill="#0a74b9"/>
    </g>
    <g id="Ellisse_1333-5" data-name="Ellisse 1333-5" transform="translate(4.177 0)">
      <path id="Tracciato_16" data-name="Tracciato 16" d="M977.29,1554.914c-1.873,0-3.287-3.207-3.287-7.458s1.413-7.459,3.287-7.459,3.287,3.207,3.287,7.459S979.163,1554.914,977.29,1554.914Zm0-14.019c-1.13,0-2.388,2.695-2.388,6.561s1.259,6.56,2.388,6.56,2.388-2.694,2.388-6.56S978.419,1540.895,977.29,1540.895Z" transform="translate(-974.003 -1539.997)" fill="#0a74b9"/>
    </g>
    <g id="Linea_77-5" data-name="Linea 77-5" transform="translate(2.345 6.92)">
      <rect id="Rettangolo_60" data-name="Rettangolo 60" width="10.237" height="0.898" fill="#0a74b9"/>
    </g>
  </g>
</svg>
