<svg id="Raggruppa_3" data-name="Raggruppa 3" xmlns="http://www.w3.org/2000/svg" width="33.103" height="33.103" viewBox="0 0 33.103 33.103">
  <g id="Ellisse_1336" data-name="Ellisse 1336" transform="translate(0)">
    <g id="Raggruppa_2" data-name="Raggruppa 2">
      <ellipse id="Ellisse_16" data-name="Ellisse 16" cx="15.657" cy="15.657" rx="15.657" ry="15.657" transform="translate(0.894 0.895)" fill="#fff"/>
      <path id="Tracciato_12" data-name="Tracciato 12" d="M966.707,1560.337a16.551,16.551,0,1,1,16.551-16.551A16.57,16.57,0,0,1,966.707,1560.337Zm0-31.313a14.762,14.762,0,1,0,14.762,14.762A14.779,14.779,0,0,0,966.707,1529.024Z" transform="translate(-950.156 -1527.234)" fill="#009cde"/>
    </g>
  </g>
  <g id="Raggruppa_3199" data-name="Raggruppa 3199" transform="translate(6.634 6.548)">
    <g id="Ellisse_1332-5" data-name="Ellisse 1332-5" transform="translate(0 0)">
      <path id="Tracciato_13" data-name="Tracciato 13" d="M973.089,1560a10,10,0,1,1,10-10A10.013,10.013,0,0,1,973.089,1560Zm0-18.8a8.8,8.8,0,1,0,8.8,8.8A8.807,8.807,0,0,0,973.089,1541.2Z" transform="translate(-963.086 -1539.997)" fill="#0a74b9"/>
    </g>
    <g id="Tracciato_2268-5" data-name="Tracciato 2268-5" transform="translate(3.3 14.338)">
      <path id="Tracciato_14" data-name="Tracciato 14" d="M982.635,1570.86a12.339,12.339,0,0,0-12.551,0l-.567-1.063a13.538,13.538,0,0,1,13.685,0Z" transform="translate(-969.517 -1567.941)" fill="#0a74b9"/>
    </g>
    <g id="Tracciato_2269-5" data-name="Tracciato 2269-5" transform="translate(3.299 2.743)">
      <path id="Tracciato_15" data-name="Tracciato 15" d="M976.359,1548.261a14.888,14.888,0,0,1-6.843-1.857l.568-1.063a12.336,12.336,0,0,0,12.551,0l.568,1.063A14.9,14.9,0,0,1,976.359,1548.261Z" transform="translate(-969.516 -1545.342)" fill="#0a74b9"/>
    </g>
    <g id="Ellisse_1333-5" data-name="Ellisse 1333-5" transform="translate(5.601 0)">
      <path id="Tracciato_16" data-name="Tracciato 16" d="M978.411,1560c-2.513,0-4.408-4.3-4.408-10s1.9-10,4.408-10,4.408,4.3,4.408,10S980.924,1560,978.411,1560Zm0-18.8c-1.515,0-3.2,3.614-3.2,8.8s1.688,8.8,3.2,8.8,3.2-3.613,3.2-8.8S979.926,1541.2,978.411,1541.2Z" transform="translate(-974.003 -1539.997)" fill="#0a74b9"/>
    </g>
    <g id="Linea_77-5" data-name="Linea 77-5" transform="translate(3.145 9.281)">
      <rect id="Rettangolo_60" data-name="Rettangolo 60" width="13.73" height="1.204" fill="#0a74b9"/>
    </g>
  </g>
</svg>
