<?xml version="1.0" encoding="UTF-8" standalone="no"?>
<svg
   xmlns:dc="http://purl.org/dc/elements/1.1/"
   xmlns:cc="http://creativecommons.org/ns#"
   xmlns:rdf="http://www.w3.org/1999/02/22-rdf-syntax-ns#"
   xmlns:svg="http://www.w3.org/2000/svg"
   xmlns="http://www.w3.org/2000/svg"
   xmlns:sodipodi="http://sodipodi.sourceforge.net/DTD/sodipodi-0.dtd"
   xmlns:inkscape="http://www.inkscape.org/namespaces/inkscape"
   width="82"
   height="46"
   viewBox="0 0 81.999998 45.999998"
   version="1.1"
   id="svg5"
   sodipodi:docname="marker_cerchio_azzurro.svg"
   inkscape:version="0.92.5 (2060ec1f9f, 2020-04-08)">
  <metadata
     id="metadata11">
    <rdf:RDF>
      <cc:Work
         rdf:about="">
        <dc:format>image/svg+xml</dc:format>
        <dc:type
           rdf:resource="http://purl.org/dc/dcmitype/StillImage" />
        <dc:title></dc:title>
      </cc:Work>
    </rdf:RDF>
  </metadata>
  <defs
     id="defs9" />
  <sodipodi:namedview
     pagecolor="#ffffff"
     bordercolor="#666666"
     borderopacity="1"
     objecttolerance="10"
     gridtolerance="10"
     guidetolerance="10"
     inkscape:pageopacity="0"
     inkscape:pageshadow="2"
     inkscape:window-width="1920"
     inkscape:window-height="1023"
     id="namedview7"
     showgrid="false"
     inkscape:zoom="5.108446"
     inkscape:cx="29.946501"
     inkscape:cy="23.099001"
     inkscape:window-x="0"
     inkscape:window-y="0"
     inkscape:window-maximized="1"
     inkscape:current-layer="svg5" />
  <g
     id="Livello_2"
     data-name="Livello 2"
     transform="matrix(0.99645552,0,0,0.99645552,11.152785,4.1672983e-8)">
    <g
       id="Livello_1"
       data-name="Livello 1">
      <path
         id="Tracciato_19"
         data-name="Tracciato 19"
         d="M 59.836,12.061 A 23.355,23.355 0 0 0 55.12,5.575 18.424,18.424 0 0 0 49.391,1.927 C 45.048,0.173 40.23,0.037 35.615,0.222 c -2.157,0.085 -4.328,0.219 -6.5,0.45 A 26.922,26.922 0 0 0 23.322,0 17.55,17.55 0 0 0 14.393,2.487 27.741,27.741 0 0 0 7.753,8.216 C 3.74,12.84 0.4,18.556 0.027,24.785 a 18.845,18.845 0 0 0 4.508,13.088 c 0.156,0.241 0.314,0.479 0.482,0.711 a 8.31,8.31 0 0 0 2.43,2.561 8.374,8.374 0 0 0 1.109,0.519 23.223,23.223 0 0 0 11.222,4.388 29.906,29.906 0 0 0 17.307,-3.765 35,35 0 0 0 13.165,-12.233 22.464,22.464 0 0 0 3.113,-8.3 A 18.581,18.581 0 0 0 52.649,13.023 15.111,15.111 0 0 0 47.917,6.187 19.731,19.731 0 0 0 40.629,2.569 31.111,31.111 0 0 0 32.506,1.541 C 32.243,1.465 31.98,1.394 31.714,1.316 33.173,1.204 34.633,1.134 36.092,1.084 a 47.074,47.074 0 0 1 6.977,0.2 23.173,23.173 0 0 1 6.214,1.543 17.353,17.353 0 0 1 5.436,3.58 22.812,22.812 0 0 1 4.356,6.1 c 0.258,0.505 1.018,0.06 0.761,-0.446 z M 0.936,24.387 A 22.7,22.7 0 0 1 3.549,15.847 36.442,36.442 0 0 1 8.691,8.482 25.9,25.9 0 0 1 15.243,3.01 16.7,16.7 0 0 1 23.929,0.889 c 0.758,0.019 1.515,0.081 2.268,0.173 a 36.811,36.811 0 0 0 -8.425,2.317 26.215,26.215 0 0 0 -4.172,2.2 c -0.147,0.066 -0.294,0.128 -0.441,0.2 A 0.361,0.361 0 0 0 12.968,6.01 22.311,22.311 0 0 0 10.413,8.08 24.3,24.3 0 0 0 5.628,14.46 30.541,30.541 0 0 0 2.346,30.312 22.565,22.565 0 0 0 2.7,33.48 C 2.474,33.025 2.259,32.559 2.079,32.08 a 17.109,17.109 0 0 1 -1.144,-7.7 z m 32.6,-21.615 a 33.335,33.335 0 0 1 7.052,3.012 15.522,15.522 0 0 1 5.35,4.882 11.726,11.726 0 0 1 1.487,8.321 23.186,23.186 0 0 1 -3.156,8.136 26.46,26.46 0 0 1 -5.269,6.225 25.6,25.6 0 0 1 -3.25,2.389 38.062,38.062 0 0 1 -3.783,1.976 55.428,55.428 0 0 1 -7.582,3.135 30.062,30.062 0 0 1 -8.2,1.265 21.693,21.693 0 0 1 -5.888,-0.818 C 9.856,41.177 9.416,41.048 8.975,40.888 A 22.1,22.1 0 0 1 5.284,37.4 12.149,12.149 0 0 1 3.594,33.5 21.715,21.715 0 0 1 3.183,29.445 30.962,30.962 0 0 1 3.946,21.6 25.39,25.39 0 0 1 11.546,8.24 21.347,21.347 0 0 1 14.033,6.34 45.821,45.821 0 0 1 32.395,2.424 c 0.383,0.113 0.765,0.231 1.146,0.348 z M 47.5,6.977 a 14.328,14.328 0 0 1 4.443,6.723 17.813,17.813 0 0 1 0.488,8.334 C 51.414,27.829 47.8,32.83 43.5,36.689 A 33.948,33.948 0 0 1 28.105,44.718 23.842,23.842 0 0 1 12.117,42.852 c -0.244,-0.126 -0.483,-0.257 -0.723,-0.394 a 21.351,21.351 0 0 0 5.3,0.517 31.461,31.461 0 0 0 8.413,-1.431 65.134,65.134 0 0 0 7.962,-3.379 30.836,30.836 0 0 0 3.736,-2.057 27.218,27.218 0 0 0 8.644,-9.239 22.943,22.943 0 0 0 2.97,-8.622 12.235,12.235 0 0 0 -1.974,-8.419 17.16,17.16 0 0 0 -5.7,-4.98 32.106,32.106 0 0 0 -5.026,-2.273 c 4.238,0.4 8.5,1.651 11.769,4.4 z M 29.454,1.644 c -1.322,0.09 -2.644,0.238 -3.95,0.441 Q 26.437,1.916 27.368,1.791 C 27.942,1.709 28.52,1.644 29.097,1.572 Z"
         transform="translate(0.005)"
         inkscape:connector-curvature="0"
         style="fill:#008dda" />
    </g>
  </g>
</svg>
