<?xml version="1.0" encoding="UTF-8" standalone="no"?>
<svg
   xmlns:dc="http://purl.org/dc/elements/1.1/"
   xmlns:cc="http://creativecommons.org/ns#"
   xmlns:rdf="http://www.w3.org/1999/02/22-rdf-syntax-ns#"
   xmlns:svg="http://www.w3.org/2000/svg"
   xmlns="http://www.w3.org/2000/svg"
   xmlns:sodipodi="http://sodipodi.sourceforge.net/DTD/sodipodi-0.dtd"
   xmlns:inkscape="http://www.inkscape.org/namespaces/inkscape"
   id="Livello_2"
   data-name="Livello 2"
   width="82"
   height="46"
   viewBox="0 0 82.000003 45.999999"
   version="1.1"
   sodipodi:docname="marker_ellisse.svg"
   inkscape:version="0.92.5 (2060ec1f9f, 2020-04-08)">
  <metadata
     id="metadata9">
    <rdf:RDF>
      <cc:Work
         rdf:about="">
        <dc:format>image/svg+xml</dc:format>
        <dc:type
           rdf:resource="http://purl.org/dc/dcmitype/StillImage" />
        <dc:title></dc:title>
      </cc:Work>
    </rdf:RDF>
  </metadata>
  <defs
     id="defs7" />
  <sodipodi:namedview
     pagecolor="#ffffff"
     bordercolor="#666666"
     borderopacity="1"
     objecttolerance="10"
     gridtolerance="10"
     guidetolerance="10"
     inkscape:pageopacity="0"
     inkscape:pageshadow="2"
     inkscape:window-width="1920"
     inkscape:window-height="1023"
     id="namedview5"
     showgrid="false"
     inkscape:zoom="4.6400881"
     inkscape:cx="40.947498"
     inkscape:cy="20.433001"
     inkscape:window-x="0"
     inkscape:window-y="0"
     inkscape:window-maximized="1"
     inkscape:current-layer="Livello_2" />
  <g
     id="Livello_1"
     data-name="Livello 1"
     transform="matrix(1.0013986,0,0,1.0013986,-5.2703841e-4,2.5402169)">
    <path
       id="Tracciato_20"
       data-name="Tracciato 20"
       d="M 55.921,5.138 A 11.417,11.417 0 0 0 49.352,1.61 29.543,29.543 0 0 0 40.166,1.241 C 32.805,1.969 25.844,4.905 19.424,8.447 16.132,10.261 12.949,12.271 9.79,14.308 6.906,16.17 3.956,18.12 3.29,21.723 a 12.568,12.568 0 0 0 2.418,9.552 17.863,17.863 0 0 0 7.228,5.441 c 5.979,2.672 12.841,3.274 19.316,3.05 A 97.7,97.7 0 0 0 54.79,35.983 c 3.6,-0.994 7.194,-2.083 10.689,-3.4 a 36.864,36.864 0 0 0 8.908,-4.561 c 2.448,-1.814 4.679,-4.329 5.021,-7.472 A 8.532,8.532 0 0 0 76.708,13.598 20.586,20.586 0 0 0 68.317,9.173 71.408,71.408 0 0 0 58.117,7.021 133.777,133.777 0 0 0 35.782,5.431 C 28.83,5.549 21.699,6.398 15.157,8.907 9.639,11.018 3.9,14.69 1.779,20.494 A 11.182,11.182 0 0 0 4.835,32.9 c 4.344,3.821 10.746,5.018 16.323,5.4 15.165,1.046 30.092,-3.957 44.036,-9.371 A 113.771,113.771 0 0 0 75.747,24.585 C 78.637,23.113 81.303,20.9 80.816,17.33 80.091,12.021 75.2,8.451 70.633,6.45 64.506,3.784 57.65,3.125 51.033,3.382 A 96.323,96.323 0 0 0 29.214,7.01 C 25.693,7.992 22.238,9.1 18.8,10.3 18.177,10.521 17.893,9.529 18.528,9.312 a 127.486,127.486 0 0 1 23.137,-6 c 7.3,-1.124 14.857,-1.49 22.112,0 5.671,1.155 11.807,3.5 15.492,8.195 a 11.086,11.086 0 0 1 2.615,7.019 c -0.127,3.346 -2.742,5.471 -5.5,6.9 A 115.987,115.987 0 0 1 65.3,30 c -3.963,1.533 -7.956,3 -12,4.3 A 99.522,99.522 0 0 1 29.71,39.276 C 23.09,39.742 16.029,39.439 9.796,36.948 5.138,35.1 0.939,31.724 0.138,26.507 -0.681,21.177 2.206,16.154 6.2,12.831 11.726,8.231 19.026,6.148 26.021,5.156 A 102.43,102.43 0 0 1 49.053,4.9 Q 54.8,5.4 60.482,6.36 a 51.772,51.772 0 0 1 10.725,2.756 16.732,16.732 0 0 1 7.33,5.027 9.162,9.162 0 0 1 1.744,7.406 c -0.641,3.053 -2.832,5.465 -5.266,7.282 a 37.572,37.572 0 0 1 -9.4,4.8 A 120.158,120.158 0 0 1 42.261,39.8 C 34.876,40.967 27.253,41.348 19.892,39.909 13.774,38.7 7.151,36.071 3.913,30.388 A 13.265,13.265 0 0 1 2.4,20.99 C 3.24,17.465 6.13,15.455 9,13.59 15.672,9.283 22.519,5.1 30.058,2.493 36.4,0.287 43.675,-0.922 50.289,0.783 a 11.835,11.835 0 0 1 6.348,3.627 c 0.417,0.5 -0.3,1.242 -0.716,0.732 z"
       transform="translate(0.002,0.022)"
       inkscape:connector-curvature="0"
       style="fill:#1a171b" />
  </g>
</svg>
