<?xml version="1.0" standalone="no"?>
<!DOCTYPE svg PUBLIC "-//W3C//DTD SVG 20010904//EN"
 "http://www.w3.org/TR/2001/REC-SVG-20010904/DTD/svg10.dtd">
<svg version="1.0" xmlns="http://www.w3.org/2000/svg"
 width="520.000000pt" height="520.000000pt" viewBox="0 0 520.000000 520.000000"
 preserveAspectRatio="xMidYMid meet">
<metadata>
Created by potrace 1.11, written by Peter Selinger 2001-2013
</metadata>
<g transform="translate(0.000000,520.000000) scale(0.100000,-0.100000)"
fill="#000000" stroke="none">
<path d="M2410 5129 c-767 -58 -1468 -474 -1896 -1125 -530 -804 -540 -1869
-26 -2687 326 -518 834 -903 1414 -1072 240 -70 437 -97 708 -96 445 0 840
102 1215 314 679 382 1131 1043 1252 1827 24 161 24 539 0 700 -82 532 -308
997 -669 1375 -429 450 -1004 720 -1629 764 -160 12 -215 12 -369 0z m-141
-649 c77 -40 122 -115 122 -205 0 -217 -276 -310 -408 -137 -147 192 71 453
286 342z m-42 -582 c41 -12 96 -75 112 -128 6 -21 16 -153 21 -292 30 -836 44
-1120 57 -1136 10 -13 14 -14 21 -4 5 7 14 114 21 238 7 123 17 239 23 257 16
50 74 103 125 118 90 25 185 -26 217 -115 10 -27 19 -119 26 -261 15 -302 17
-317 44 -313 20 3 21 8 28 223 4 121 12 237 18 257 22 77 87 128 164 128 56 0
93 -14 129 -48 57 -54 59 -63 58 -327 -2 -243 4 -295 34 -295 19 0 22 16 36
210 12 180 17 201 57 243 38 40 74 57 122 57 80 0 148 -51 169 -125 19 -70
-18 -684 -55 -905 -104 -619 -382 -945 -862 -1010 -450 -61 -845 184 -1095
678 -75 147 -103 221 -191 502 -64 200 -139 409 -209 580 -46 110 -53 164 -30
210 21 41 71 77 120 86 120 23 283 -151 451 -483 37 -73 72 -131 77 -130 6 2
13 202 17 553 4 302 11 673 16 824 7 255 10 278 30 317 49 94 136 126 249 91z"/>
</g>
</svg>
