<svg xmlns="http://www.w3.org/2000/svg" viewBox="0 0 300 300"><defs><style>.cls-1,.cls-3{fill:none;}.cls-1{stroke:#333;stroke-miterlimit:10;stroke-width:5px;}.cls-2{fill:#fff;}</style></defs><g id="Livello_2" data-name="Livello 2"><g id="Livello_1-2" data-name="Livello 1"><circle class="cls-1" cx="182.5" cy="160.5" r="98"/><circle class="cls-1" cx="66" cy="60" r="30.5"/><g id="Raggruppa_3311" data-name="Raggruppa 3311"><path id="Tracciato_1534" data-name="Tracciato 1534" class="cls-2" d="M264.06,202.83l-2-6.54-13.08,4-2-6.54-19.62,6-2-6.54-13.08,4-13.14-42.8-6.54,2-2-6.54-13.08,4,2,6.54-6.55,2,19.17,62.43-6.54,2-2-6.54-13.09,4,2,6.54L166,233l4,13.09,6.54-2,2,6.54,6.54-2,4,13.08,6.54-2,2,6.61,6.54-2,4,13,6.55-2h0l2,6.54,58.81-18-4-13.13,6.54-2-4-13.08,6.54-2L270.6,200.83Z"/><g id="Raggruppa_1993" data-name="Raggruppa 1993"><rect id="Rettangolo_1378" data-name="Rettangolo 1378" x="178.18" y="151.79" width="13.68" height="6.84" transform="translate(-37.41 61.15) rotate(-17.07)"/><path id="Tracciato_1535" data-name="Tracciato 1535" d="M220.28,223.43l-6-19.62,13.08-4-2-6.54-13.08,4L199.1,154.46l-6.54,2,21.18,69Z"/><path id="Tracciato_1536" data-name="Tracciato 1536" d="M192.11,224.92l-6.54,2-2-6.54-13.08,4,2,6.54L166,233,170,246l6.54-2-4-13.08,13.08-4,2,6.54,6.54-2,2,6.53,6.55-2-23.19-75.5-6.54,2Z"/><path id="Tracciato_1537" data-name="Tracciato 1537" d="M264.06,202.82l10.06,32.77,6.54-2L270.6,200.82Z"/><path id="Tracciato_1538" data-name="Tracciato 1538" d="M247,193.77l-19.62,6,8,26.16,6.55-2-6-19.62,13.08-4,6,19.62,6.54-2-4-13.08,6.54-2-2-6.54-13.08,4Z"/><rect id="Rettangolo_1379" data-name="Rettangolo 1379" x="177.36" y="242.88" width="6.84" height="6.84" transform="translate(-64.34 63.92) rotate(-17.07)"/><path id="Tracciato_1539" data-name="Tracciato 1539" d="M216.73,281.78l58.81-18-2-6.54-58.81,18Z"/><rect id="Rettangolo_1380" data-name="Rettangolo 1380" x="269.44" y="236.3" width="6.84" height="13.69" transform="translate(-59.35 90.81) rotate(-17.07)"/><rect id="Rettangolo_1381" data-name="Rettangolo 1381" x="265.79" y="251.51" width="6.84" height="6.9" transform="translate(-62.98 90.26) rotate(-17.07)"/><path id="Tracciato_1540" data-name="Tracciato 1540" d="M202.17,257.69l-6.54,2,2,6.54,6.54-2,4,13,6.54-2-4-13.08-6.54,2Z"/><rect id="Rettangolo_1382" data-name="Rettangolo 1382" x="186.91" y="247.25" width="6.84" height="13.68" transform="translate(-66.2 67.07) rotate(-17.07)"/></g></g><rect class="cls-3" width="300" height="300"/></g></g></svg>