<svg xmlns="http://www.w3.org/2000/svg" viewBox="0 0 300 300"><defs><style>.cls-1,.cls-3{fill:none;}.cls-1{stroke:#333;stroke-miterlimit:10;stroke-width:5px;}.cls-2{fill:#fff;}</style></defs><g id="Livello_2" data-name="Livello 2"><g id="Livello_1-2" data-name="Livello 1"><rect id="Rettangolo_1684" data-name="Rettangolo 1684" class="cls-1" x="58.73" y="61.73" width="161.82" height="35.16"/><rect id="Rettangolo_1681" data-name="Rettangolo 1681" class="cls-1" x="59.18" y="108.61" width="161.82" height="33.49"/><rect id="Rettangolo_1680" data-name="Rettangolo 1680" class="cls-1" x="58.73" y="155.49" width="161.82" height="35.16"/><rect id="Rettangolo_1681-2" data-name="Rettangolo 1681" class="cls-1" x="59.18" y="204.45" width="161.82" height="33.49"/><g id="Raggruppa_3311" data-name="Raggruppa 3311"><path id="Tracciato_1534" data-name="Tracciato 1534" class="cls-2" d="M253.56,159.33l-2-6.54-13.08,4-2-6.54-19.62,6-2-6.54-13.08,4L188.61,111l-6.54,2-2-6.54-13.08,4,2,6.54-6.55,2,19.17,62.43-6.54,2-2-6.54-13.09,4,2,6.54-6.54,2,4,13.09,6.54-2,2,6.54,6.54-2,4,13.08,6.54-2,2,6.61,6.54-2,4,13,6.55-2h0l2,6.54,58.81-18-4-13.13,6.54-2-4-13.08,6.54-2L260.1,157.33Z"/><g id="Raggruppa_1993" data-name="Raggruppa 1993"><rect id="Rettangolo_1378" data-name="Rettangolo 1378" x="167.68" y="108.29" width="13.68" height="6.84" transform="translate(-25.1 56.15) rotate(-17.07)"/><path id="Tracciato_1535" data-name="Tracciato 1535" d="M209.78,179.93l-6-19.62,13.08-4-2-6.54-13.08,4L188.6,111l-6.54,2,21.18,69Z"/><path id="Tracciato_1536" data-name="Tracciato 1536" d="M181.61,181.42l-6.54,2-2-6.54-13.08,4,2,6.54-6.54,2,4,13.08,6.54-2-4-13.08,13.08-4,2,6.54,6.54-2,2,6.53,6.55-2L169,117l-6.54,2Z"/><path id="Tracciato_1537" data-name="Tracciato 1537" d="M253.56,159.32l10.06,32.77,6.54-2L260.1,157.32Z"/><path id="Tracciato_1538" data-name="Tracciato 1538" d="M236.46,150.27l-19.62,6,8,26.16,6.54-2-6-19.62,13.08-4,6,19.62,6.54-2-4-13.08,6.54-2-2-6.54-13.08,4Z"/><rect id="Rettangolo_1379" data-name="Rettangolo 1379" x="166.86" y="199.38" width="6.84" height="6.84" transform="translate(-52.03 58.92) rotate(-17.07)"/><path id="Tracciato_1539" data-name="Tracciato 1539" d="M206.23,238.28l58.81-18-2-6.54-58.81,18Z"/><rect id="Rettangolo_1380" data-name="Rettangolo 1380" x="258.94" y="192.8" width="6.84" height="13.69" transform="translate(-47.05 85.81) rotate(-17.07)"/><rect id="Rettangolo_1381" data-name="Rettangolo 1381" x="255.29" y="208.01" width="6.84" height="6.9" transform="translate(-50.68 85.26) rotate(-17.07)"/><path id="Tracciato_1540" data-name="Tracciato 1540" d="M191.67,214.19l-6.54,2,2,6.54,6.54-2,4,13,6.54-2-4-13.08-6.54,2Z"/><rect id="Rettangolo_1382" data-name="Rettangolo 1382" x="176.41" y="203.75" width="6.84" height="13.68" transform="translate(-53.9 62.07) rotate(-17.07)"/></g></g><rect class="cls-3" width="300" height="300"/></g></g></svg>