<svg xmlns="http://www.w3.org/2000/svg" viewBox="0 0 143.67 227.58"><defs><style>.cls-1{fill:#010101;}.cls-2{fill:#fff;}</style></defs><g id="Livello_2" data-name="Livello 2"><g id="Livello_1-2" data-name="Livello 1"><path class="cls-1" d="M65.05,24.2a16.27,16.27,0,0,1-11.25,4,16.24,16.24,0,0,1-11.24-4,12.93,12.93,0,0,1-4.51-10.09A13,13,0,0,1,42.56,4,16.29,16.29,0,0,1,53.8,0,16.31,16.31,0,0,1,65.05,4a13,13,0,0,1,4.51,10.09A13,13,0,0,1,65.05,24.2Z"/><polygon class="cls-2" points="116.66 137.78 134.58 137.78 134.58 146.74 134.58 146.74 143.54 146.74 143.54 191.62 134.58 191.62 134.58 209.53 125.47 209.53 125.51 227.48 44.99 227.37 44.99 218.41 36.04 218.41 36.04 200.57 27.08 200.57 27.08 191.53 18.12 191.53 18.12 173.62 9.16 173.62 9.16 164.66 0.2 164.66 0.2 146.74 9.16 146.74 9.16 137.78 27.08 137.78 27.08 146.74 36.04 146.74 36.04 61.24 44.99 61.24 44.99 52.28 62.91 52.28 62.91 61.24 71.87 61.24 71.87 119.86 89.79 119.86 89.79 128.82 116.66 128.82 116.66 137.78"/><rect class="cls-1" y="146.65" width="8.98" height="17.96"/><rect class="cls-1" x="44.9" y="51.97" width="17.96" height="8.98"/><polygon class="cls-1" points="71.83 155.63 71.83 128.69 89.79 128.69 89.79 119.71 71.83 119.71 71.83 60.95 62.86 60.95 62.86 155.63 71.83 155.63"/><polygon class="cls-1" points="26.94 155.63 35.92 155.63 35.92 164.61 44.9 164.61 44.9 60.95 35.92 60.95 35.92 146.65 26.94 146.65 26.94 137.67 8.98 137.67 8.98 146.65 26.94 146.65 26.94 155.63"/><polygon class="cls-1" points="98.77 164.61 98.77 137.67 116.73 137.67 116.73 128.69 89.79 128.69 89.79 164.61 98.77 164.61"/><polygon class="cls-1" points="116.73 137.67 116.73 164.61 125.71 164.61 125.71 146.65 134.69 146.65 134.69 137.67 116.73 137.67"/><rect class="cls-1" x="8.98" y="164.61" width="8.98" height="8.98"/><rect class="cls-1" x="35.92" y="200.53" width="8.98" height="17.96"/><polygon class="cls-1" points="44.9 227.47 125.6 227.58 125.6 218.6 44.9 218.49 44.9 227.47"/><rect class="cls-1" x="125.71" y="191.63" width="8.98" height="17.96"/><rect class="cls-1" x="134.69" y="146.65" width="8.98" height="44.98"/><rect class="cls-1" x="116.59" y="209.51" width="8.98" height="9.06"/><rect class="cls-1" x="26.94" y="191.63" width="8.98" height="8.98"/><rect class="cls-1" x="17.96" y="173.59" width="8.98" height="17.96"/></g></g></svg>