<svg xmlns="http://www.w3.org/2000/svg" viewBox="0 0 300 300"><defs><style>.cls-1,.cls-3{fill:none;}.cls-1{stroke:#333;stroke-miterlimit:10;stroke-width:5px;}.cls-2{fill:#fff;}</style></defs><g id="Livello_2" data-name="Livello 2"><g id="Livello_1-2" data-name="Livello 1"><circle class="cls-1" cx="150.5" cy="143.5" r="98"/><circle class="cls-1" cx="150.5" cy="143.5" r="49.5"/><g id="Raggruppa_3311" data-name="Raggruppa 3311"><path id="Tracciato_1534" data-name="Tracciato 1534" class="cls-2" d="M232.06,185.83l-2-6.54-13.08,4-2-6.54-19.62,6-2-6.54-13.08,4-13.14-42.8-6.54,2-2-6.54-13.08,4,2,6.54-6.55,2,19.17,62.43-6.54,2-2-6.54-13.09,4,2,6.54L134,216l4,13.09,6.54-2,2,6.54,6.54-2,4,13.08,6.54-2,2,6.61,6.54-2,4,13,6.55-2h0l2,6.54,58.81-18-3.95-13.13,6.54-2-4-13.08,6.54-2L238.6,183.83Z"/><g id="Raggruppa_1993" data-name="Raggruppa 1993"><rect id="Rettangolo_1378" data-name="Rettangolo 1378" x="146.18" y="134.79" width="13.68" height="6.84" transform="translate(-33.83 51.01) rotate(-17.07)"/><path id="Tracciato_1535" data-name="Tracciato 1535" d="M188.28,206.43l-6-19.62,13.08-4-2-6.54-13.08,4L167.1,137.46l-6.54,2,21.18,69Z"/><path id="Tracciato_1536" data-name="Tracciato 1536" d="M160.11,207.92l-6.54,2-2-6.54-13.08,4,2,6.54L134,216,138,229l6.54-2-4-13.08,13.08-4,2,6.54,6.54-2,2,6.53,6.55-2-23.19-75.5-6.54,2Z"/><path id="Tracciato_1537" data-name="Tracciato 1537" d="M232.06,185.82l10.06,32.77,6.54-2L238.6,183.82Z"/><path id="Tracciato_1538" data-name="Tracciato 1538" d="M215,176.77l-19.62,6,8,26.16,6.55-2-6-19.62,13.08-4,6,19.62,6.54-2-4-13.08,6.54-2-2-6.54-13.08,4Z"/><rect id="Rettangolo_1379" data-name="Rettangolo 1379" x="145.36" y="225.88" width="6.84" height="6.84" transform="translate(-60.76 53.78) rotate(-17.07)"/><path id="Tracciato_1539" data-name="Tracciato 1539" d="M184.73,264.78l58.81-18-2-6.54-58.81,18Z"/><rect id="Rettangolo_1380" data-name="Rettangolo 1380" x="237.44" y="219.3" width="6.84" height="13.69" transform="translate(-55.77 80.67) rotate(-17.07)"/><rect id="Rettangolo_1381" data-name="Rettangolo 1381" x="233.79" y="234.51" width="6.84" height="6.9" transform="translate(-59.4 80.12) rotate(-17.07)"/><path id="Tracciato_1540" data-name="Tracciato 1540" d="M170.17,240.69l-6.54,2,2,6.54,6.54-2,4,13,6.54-2-4-13.08-6.54,2Z"/><rect id="Rettangolo_1382" data-name="Rettangolo 1382" x="154.91" y="230.25" width="6.84" height="13.68" transform="translate(-62.62 56.93) rotate(-17.07)"/></g></g><rect class="cls-3" width="300" height="300"/></g></g></svg>