<svg xmlns="http://www.w3.org/2000/svg" viewBox="0 0 300 300"><defs><style>.cls-1,.cls-2,.cls-4{fill:none;}.cls-1,.cls-2{stroke:#333;stroke-miterlimit:10;}.cls-1{stroke-width:5px;}.cls-2{stroke-width:3px;}.cls-3{fill:#fff;}</style></defs><g id="Livello_2" data-name="Livello 2"><g id="Livello_1-2" data-name="Livello 1"><rect class="cls-1" x="42" y="42" width="216" height="216"/><rect class="cls-2" x="79" y="79" width="142" height="142"/><g id="Raggruppa_3311" data-name="Raggruppa 3311"><path id="Tracciato_1534" data-name="Tracciato 1534" class="cls-3" d="M257.56,159.33l-2-6.54-13.08,4-2-6.54-19.62,6-2-6.54-13.08,4L192.61,111l-6.54,2-2-6.54-13.08,4,2,6.54-6.55,2,19.17,62.43-6.54,2-2-6.54-13.09,4,2,6.54-6.54,2,4,13.09,6.54-2,2,6.54,6.54-2,4,13.08,6.54-2,2,6.61,6.54-2,4,13,6.55-2h0l2,6.54,58.81-18-4-13.13,6.54-2-4-13.08,6.54-2L264.1,157.33Z"/><g id="Raggruppa_1993" data-name="Raggruppa 1993"><rect id="Rettangolo_1378" data-name="Rettangolo 1378" x="171.68" y="108.29" width="13.68" height="6.84" transform="translate(-24.93 57.33) rotate(-17.07)"/><path id="Tracciato_1535" data-name="Tracciato 1535" d="M213.78,179.93l-6-19.62,13.08-4-2-6.54-13.08,4L192.6,111l-6.54,2,21.18,69Z"/><path id="Tracciato_1536" data-name="Tracciato 1536" d="M185.61,181.42l-6.54,2-2-6.54-13.08,4,2,6.54-6.54,2,4,13.08,6.54-2-4-13.08,13.08-4,2,6.54,6.54-2,2,6.53,6.55-2L173,117l-6.54,2Z"/><path id="Tracciato_1537" data-name="Tracciato 1537" d="M257.56,159.32l10.06,32.77,6.54-2L264.1,157.32Z"/><path id="Tracciato_1538" data-name="Tracciato 1538" d="M240.46,150.27l-19.62,6,8,26.16,6.54-2-6-19.62,13.08-4,6,19.62,6.54-2-4-13.08,6.54-2-2-6.54-13.08,4Z"/><rect id="Rettangolo_1379" data-name="Rettangolo 1379" x="170.86" y="199.38" width="6.84" height="6.84" transform="translate(-51.85 60.1) rotate(-17.07)"/><path id="Tracciato_1539" data-name="Tracciato 1539" d="M210.23,238.28l58.81-18-2-6.54-58.81,18Z"/><rect id="Rettangolo_1380" data-name="Rettangolo 1380" x="262.94" y="192.8" width="6.84" height="13.69" transform="translate(-46.87 86.99) rotate(-17.07)"/><rect id="Rettangolo_1381" data-name="Rettangolo 1381" x="259.29" y="208.01" width="6.84" height="6.9" transform="translate(-50.5 86.44) rotate(-17.07)"/><path id="Tracciato_1540" data-name="Tracciato 1540" d="M195.67,214.19l-6.54,2,2,6.54,6.54-2,4,13,6.54-2-4-13.08-6.54,2Z"/><rect id="Rettangolo_1382" data-name="Rettangolo 1382" x="180.41" y="203.75" width="6.84" height="13.68" transform="translate(-53.72 63.24) rotate(-17.07)"/></g></g><rect class="cls-4" width="300" height="300"/></g></g></svg>