<svg xmlns="http://www.w3.org/2000/svg" viewBox="0 0 300 300"><defs><style>.cls-1{fill:#fff;}.cls-2,.cls-3{fill:none;}.cls-3{stroke:#333;stroke-miterlimit:10;stroke-width:5px;}</style></defs><g id="Livello_2" data-name="Livello 2"><g id="Livello_1-2" data-name="Livello 1"><g id="Raggruppa_3311" data-name="Raggruppa 3311"><path id="Tracciato_1534" data-name="Tracciato 1534" class="cls-1" d="M141.07,65.41l-3.27-6-12,6.55-3.27-6-18,9.82-3.27-6-12,6.55L67.78,31l-6,3.27-3.27-6-12,6.54,3.27,6-6,3.28L75,101.42l-6,3.27-3.27-6-12,6.55,3.27,6-6,3.27,6.55,12,6-3.27,3.27,6,6-3.27,6.54,12,6-3.28,3.31,6.07,6-3.27,6.51,11.95,6-3.27h0l3.27,6,54-29.34L158,110.81l6-3.28-6.54-12,6-3.27-16.39-30.1Z"/><g id="Raggruppa_1993" data-name="Raggruppa 1993"><rect id="Rettangolo_1378" data-name="Rettangolo 1378" x="47.29" y="31.09" width="13.68" height="6.84" transform="translate(-9.91 30.1) rotate(-28.58)"/><path id="Tracciato_1535" data-name="Tracciato 1535" d="M102.29,94.33l-9.82-18,12-6.54-3.27-6-12,6.54L67.78,31l-6,3.27L96.28,97.6Z"/><path id="Tracciato_1536" data-name="Tracciato 1536" d="M75,101.41l-6,3.27-3.27-6-12,6.54,3.27,6-6,3.27,6.55,12,6-3.27-6.54-12,12-6.54,3.27,6,6-3.27,3.27,6,6-3.28L49.76,40.79l-6,3.27Z"/><path id="Tracciato_1537" data-name="Tracciato 1537" d="M141.08,65.41,157.47,95.5l6-3.27-16.39-30.1Z"/><path id="Tracciato_1538" data-name="Tracciato 1538" d="M122.52,59.94l-18,9.82,13.09,24,6-3.28-9.82-18,12-6.55,9.81,18,6-3.28-6.54-12,6-3.27-3.28-6-12,6.55Z"/><rect id="Rettangolo_1379" data-name="Rettangolo 1379" x="64.72" y="121.19" width="6.84" height="6.84" transform="translate(-51.31 47.78) rotate(-28.58)"/><path id="Tracciato_1539" data-name="Tracciato 1539" d="M110.45,152.21l54-29.33-3.27-6-54,29.34Z"/><rect id="Rettangolo_1380" data-name="Rettangolo 1380" x="154.32" y="96.31" width="6.84" height="13.69" transform="translate(-30.13 88.02) rotate(-28.58)"/><rect id="Rettangolo_1381" data-name="Rettangolo 1381" x="153.11" y="112.01" width="6.84" height="6.9" transform="translate(-36.16 88.94) rotate(-28.58)"/><path id="Tracciato_1540" data-name="Tracciato 1540" d="M91.38,131.51l-6,3.27,3.27,6,6-3.27,6.51,12,6-3.28-6.55-12-6,3.27Z"/><rect id="Rettangolo_1382" data-name="Rettangolo 1382" x="75.64" y="123.51" width="6.84" height="13.68" transform="translate(-52.72 53.7) rotate(-28.58)"/></g></g><rect class="cls-2" width="300" height="300"/><polyline class="cls-3" points="123.5 168.5 151.5 248.5 161.22 233.69 185.5 259.5 180.03 225.72 224.77 269.22 199.1 216 228.5 228.5 205.68 195.62 225.5 197.5 177.69 140.87"/></g></g></svg>