<svg xmlns="http://www.w3.org/2000/svg" viewBox="0 0 300 300"><defs><style>.cls-1,.cls-2{fill:none;}.cls-1{stroke:#333;stroke-miterlimit:10;stroke-width:5px;}</style></defs><g id="Livello_2" data-name="Livello 2"><g id="Livello_1-2" data-name="Livello 1"><path class="cls-1" d="M249.79,227.55l-8.47-4.89a38.09,38.09,0,0,0,0-14l8.47-4.89a2.4,2.4,0,0,0,1.1-2.79A49.58,49.58,0,0,0,240,182.21a2.38,2.38,0,0,0-2.94-.46l-8.48,4.89a37.5,37.5,0,0,0-12.09-7V169.9a2.38,2.38,0,0,0-1.87-2.33,50,50,0,0,0-21.72,0,2.38,2.38,0,0,0-1.86,2.33v9.78a38.74,38.74,0,0,0-12.1,7l-8.45-4.89a2.35,2.35,0,0,0-2.94.46A49.28,49.28,0,0,0,156.68,201a2.39,2.39,0,0,0,1.09,2.79l8.48,4.89a38.09,38.09,0,0,0,0,14l-8.48,4.89a2.41,2.41,0,0,0-1.09,2.79,49.58,49.58,0,0,0,10.88,18.81,2.38,2.38,0,0,0,2.94.46l8.47-4.89a37.54,37.54,0,0,0,12.1,7v9.78a2.39,2.39,0,0,0,1.86,2.33,50,50,0,0,0,21.72,0,2.38,2.38,0,0,0,1.87-2.33v-9.78a38.69,38.69,0,0,0,12.09-7l8.48,4.89a2.36,2.36,0,0,0,2.94-.46,49.28,49.28,0,0,0,10.88-18.81A2.46,2.46,0,0,0,249.79,227.55Zm-46,4a15.91,15.91,0,1,1,15.91-15.91A15.93,15.93,0,0,1,203.77,231.59Z"/><path class="cls-1" d="M195,131.1l-13.86-8a63.07,63.07,0,0,0,0-22.84l13.86-8a3.94,3.94,0,0,0,1.79-4.56A81.13,81.13,0,0,0,179,56.91a3.93,3.93,0,0,0-4.82-.75l-13.86,8a61.36,61.36,0,0,0-19.78-11.42v-16A3.89,3.89,0,0,0,137.5,33,81.73,81.73,0,0,0,102,33a3.89,3.89,0,0,0-3.06,3.8v16A63.36,63.36,0,0,0,79.13,64.2l-13.83-8a3.87,3.87,0,0,0-4.82.75A80.51,80.51,0,0,0,42.69,87.73a3.87,3.87,0,0,0,1.79,4.55l13.86,8a62.63,62.63,0,0,0,0,22.84l-13.86,8a3.93,3.93,0,0,0-1.79,4.56,81.11,81.11,0,0,0,17.79,30.78,3.91,3.91,0,0,0,4.82.74l13.86-8a61.57,61.57,0,0,0,19.78,11.42v16a3.9,3.9,0,0,0,3.06,3.81,82,82,0,0,0,35.53,0,3.9,3.9,0,0,0,3.06-3.81v-16a63.14,63.14,0,0,0,19.78-11.42l13.87,8a3.85,3.85,0,0,0,4.81-.74,80.55,80.55,0,0,0,17.8-30.78A4,4,0,0,0,195,131.1Zm-75.29,6.6a26,26,0,1,1,26-26A26.06,26.06,0,0,1,119.74,137.7Z"/><rect class="cls-2" width="300" height="300"/></g></g></svg>