<svg xmlns="http://www.w3.org/2000/svg" viewBox="0 0 300 300"><defs><style>.cls-1,.cls-3{fill:none;}.cls-1{stroke:#333;stroke-miterlimit:10;stroke-width:5px;}.cls-2{fill:#fff;}</style></defs><g id="Livello_2" data-name="Livello 2"><g id="Livello_1-2" data-name="Livello 1"><polygon class="cls-1" points="251.82 150 77.75 49.5 77.75 250.5 251.82 150"/><g id="Raggruppa_3311" data-name="Raggruppa 3311"><path id="Tracciato_1534" data-name="Tracciato 1534" class="cls-2" d="M256.56,177.33l-2-6.54-13.08,4-2-6.54-19.62,6-2-6.54-13.08,4L191.61,129l-6.54,2-2-6.54-13.08,4,2,6.54-6.55,2,19.17,62.43-6.54,2-2-6.54-13.09,4,2,6.54-6.54,2,4,13.09,6.54-2,2,6.54,6.54-2,4,13.08,6.54-2,2,6.61,6.54-2,4,13,6.55-2h0l2,6.54,58.81-18-4-13.13,6.54-2-4-13.08,6.54-2L263.1,175.33Z"/><g id="Raggruppa_1993" data-name="Raggruppa 1993"><rect id="Rettangolo_1378" data-name="Rettangolo 1378" x="170.68" y="126.29" width="13.68" height="6.84" transform="translate(-30.26 57.83) rotate(-17.07)"/><path id="Tracciato_1535" data-name="Tracciato 1535" d="M212.78,197.93l-6-19.62,13.08-4-2-6.54-13.08,4L191.6,129l-6.54,2,21.18,69Z"/><path id="Tracciato_1536" data-name="Tracciato 1536" d="M184.61,199.42l-6.54,2-2-6.54-13.08,4,2,6.54-6.54,2,4,13.08,6.54-2-4-13.08,13.08-4,2,6.54,6.54-2,2,6.53,6.55-2L172,135l-6.54,2Z"/><path id="Tracciato_1537" data-name="Tracciato 1537" d="M256.56,177.32l10.06,32.77,6.54-2L263.1,175.32Z"/><path id="Tracciato_1538" data-name="Tracciato 1538" d="M239.46,168.27l-19.62,6,8,26.16,6.54-2-6-19.62,13.08-4,6,19.62,6.54-2-4-13.08,6.54-2-2-6.54-13.08,4Z"/><rect id="Rettangolo_1379" data-name="Rettangolo 1379" x="169.86" y="217.38" width="6.84" height="6.84" transform="translate(-57.18 60.59) rotate(-17.07)"/><path id="Tracciato_1539" data-name="Tracciato 1539" d="M209.23,256.28l58.81-18-2-6.54-58.81,18Z"/><rect id="Rettangolo_1380" data-name="Rettangolo 1380" x="261.94" y="210.8" width="6.84" height="13.69" transform="translate(-52.2 87.48) rotate(-17.07)"/><rect id="Rettangolo_1381" data-name="Rettangolo 1381" x="258.29" y="226.01" width="6.84" height="6.9" transform="translate(-55.83 86.94) rotate(-17.07)"/><path id="Tracciato_1540" data-name="Tracciato 1540" d="M194.67,232.19l-6.54,2,2,6.54,6.54-2,4,13,6.54-2-4-13.08-6.54,2Z"/><rect id="Rettangolo_1382" data-name="Rettangolo 1382" x="179.41" y="221.75" width="6.84" height="13.68" transform="translate(-59.05 63.74) rotate(-17.07)"/></g></g><rect class="cls-3" width="300" height="300"/></g></g></svg>